<svg version="1.1" id="Layer_1" xmlns="http://www.w3.org/2000/svg" xmlns:xlink="http://www.w3.org/1999/xlink" x="0px" y="0px" viewBox="0 0 24 24" style="enable-background:new 0 0 512 512;" xml:space="preserve" width="24" height="24"><path style="fill:#FFEBD2;" d="M23.248 2.814c-3.14 0 -5.436 3.562 -6.374 3.374 -1.374 -0.78 -3.028 -1.124 -4.874 -1.124l0.01 0.048h-0.02L12 5.064c-1.846 0 -3.5 0.344 -4.874 1.124 -0.938 0.188 -3.234 -3.374 -6.374 -3.374 0 0 -1.054 3.452 0.374 5.624 0.782 1.188 2.438 1.188 2.624 1.874v1.544c0 0.972 0.194 1.948 0.546 2.876a9 9 0 0 0 4.27 4.85l0.014 0.008 0.096 0.048a8 8 0 0 0 0.322 0.152v-0.002a7.6 7.6 0 0 0 3.048 0.648c4.556 0 8.248 -4.196 8.248 -8.428q0 -0.408 -0.046 -0.798v-0.896c0.188 -0.688 1.844 -0.688 2.624 -1.874 1.428 -2.172 0.374 -5.624 0.374 -5.624"/><path style="fill:#DECDB6;" cx="258.799" cy="367.978" r="83.983" d="M16.068 17.248a3.94 3.94 0 0 1 -3.936 3.938 3.94 3.94 0 0 1 -3.938 -3.938 3.936 3.936 0 0 1 7.874 0"/><g><path style="fill:#595966;" cx="177.015" cy="275.996" r="55.989" d="M10.922 12.938a2.62 2.62 0 0 1 -2.624 2.624 2.62 2.62 0 0 1 -2.624 -2.624 2.624 2.624 0 0 1 5.248 0"/><path style="fill:#595966;" cx="335.983" cy="275.996" r="55.989" d="M18.374 12.938a2.62 2.62 0 0 1 -2.624 2.624 2.62 2.62 0 0 1 -2.626 -2.624 2.624 2.624 0 0 1 5.25 0"/></g><g><path style="fill:#FFD25F;" cx="177.015" cy="275.996" r="31.994" d="M9.798 12.938a1.5 1.5 0 0 1 -1.5 1.5 1.5 1.5 0 0 1 -1.5 -1.5 1.5 1.5 0 0 1 3 0"/><path style="fill:#FFD25F;" cx="336.983" cy="275.996" r="31.994" d="M17.296 12.938a1.5 1.5 0 0 1 -1.5 1.5 1.5 1.5 0 0 1 -1.5 -1.5 1.5 1.5 0 0 1 3 0"/></g><path style="fill:#595966;" d="M12 15.186c-1.23 0 -3.28 1.698 -3.28 3.822 0 1.73 1.906 1.486 2.834 1.108a1.18 1.18 0 0 1 0.894 0c0.928 0.38 2.834 0.624 2.834 -1.108 0 -2.124 -2.05 -3.822 -3.28 -3.822"/><path style="fill:#BEAF9B;" d="M18.334 7.524a5.6 5.6 0 0 0 -2.388 -1.836c-1.132 -0.454 -2.444 -0.624 -3.814 -0.624s-2.682 0.168 -3.814 0.624a5.6 5.6 0 0 0 -2.388 1.836 0.396 0.396 0 0 0 0.426 0.62c3.022 -0.83 5.778 -0.83 5.778 -0.83s2.756 0 5.778 0.83a0.396 0.396 0 0 0 0.426 -0.62"/><g><path style="fill:#595966;" d="M2.626 6.938C0.97 5.856 0.662 4.486 0.656 3.63l-0.192 -0.16c-0.036 0.41 -1.072 5.664 3.082 6.608 0.098 -0.296 0.146 -0.42 0.296 -0.688a2.2 2.2 0 0 0 0.258 -0.758c-0.15 -0.792 -0.716 -1.2 -1.474 -1.694"/><path style="fill:#595966;" d="m23.328 2.784 -0.072 0.062c0.074 0.288 0.552 2.5 -1.884 4.092 -0.764 0.5 -1.334 0.91 -1.478 1.718a2 2 0 0 0 0.164 0.322 5.4 5.4 0 0 1 0.438 0.91c4.49 -1.11 3.116 -6.488 2.83 -7.104"/><path style="fill:#595966;" d="M10.978 20.872a7 7 0 0 0 1.014 0.074q0.54 0 1.05 -0.08a3 3 0 0 1 -1.02 -0.514 3 3 0 0 1 -1.046 0.52"/></g><path d="M10.126 12.938a1.876 1.876 0 1 0 -3.75 0.002 1.876 1.876 0 0 0 3.75 -0.002m-1.874 1.124a1.124 1.124 0 1 1 0.002 -2.25 1.124 1.124 0 0 1 -0.002 2.25"/><path d="M15.75 11.062a1.876 1.876 0 1 0 0.002 3.75 1.876 1.876 0 0 0 -0.002 -3.75m0 3a1.124 1.124 0 1 1 0.002 -2.25 1.124 1.124 0 0 1 -0.002 2.25"/><path d="M8.25 12.562a0.4 0.4 0 0 0 -0.266 0.11 0.4 0.4 0 0 0 -0.11 0.266c0 0.098 0.04 0.196 0.11 0.266a0.4 0.4 0 0 0 0.266 0.11 0.4 0.4 0 0 0 0.266 -0.11 0.4 0.4 0 0 0 0.11 -0.266 0.4 0.4 0 0 0 -0.11 -0.266 0.4 0.4 0 0 0 -0.266 -0.11"/><path d="M15.75 12.562a0.4 0.4 0 0 0 -0.266 0.11 0.4 0.4 0 0 0 -0.11 0.266c0 0.098 0.04 0.196 0.11 0.266a0.4 0.4 0 0 0 0.266 0.11c0.098 0 0.194 -0.04 0.264 -0.11a0.4 0.4 0 0 0 0.11 -0.266 0.4 0.4 0 0 0 -0.11 -0.266 0.4 0.4 0 0 0 -0.264 -0.11"/><path d="M14.818 16.374c-0.31 -0.186 -0.584 -0.406 -0.852 -0.618 -0.596 -0.474 -1.16 -0.922 -1.968 -0.922 -0.816 0 -1.42 0.48 -2.006 0.946a8 8 0 0 1 -0.814 0.594 0.376 0.376 0 0 0 0.39 0.64c0.328 -0.2 0.614 -0.428 0.89 -0.646 0.528 -0.42 0.986 -0.782 1.54 -0.782 0.546 0 0.968 0.334 1.5 0.758 0.284 0.226 0.58 0.46 0.93 0.672a0.374 0.374 0 0 0 0.514 -0.128 0.38 0.38 0 0 0 -0.128 -0.514"/><path d="M23.606 2.704zl-0.02 -0.05 -0.004 -0.01 -0.028 -0.046 -0.004 -0.006 -0.032 -0.038 -0.004 -0.004 -0.04 -0.034 -0.008 -0.006 -0.044 -0.028 -0.006 -0.002 -0.044 -0.018 -0.01 -0.004 -0.05 -0.012 -0.01 -0.002 -0.056 -0.004c-2.09 0 -3.772 1.424 -5 2.464 -0.344 0.29 -0.64 0.542 -0.89 0.714a1.2 1.2 0 0 1 -0.38 0.2c-1.358 -0.748 -3.032 -1.128 -4.978 -1.128s-3.62 0.38 -4.978 1.128a1.2 1.2 0 0 1 -0.382 -0.2 12 12 0 0 1 -0.89 -0.714c-1.228 -1.04 -2.908 -2.464 -5 -2.464l-0.056 0.004 -0.01 0.002 -0.05 0.012 -0.008 0.004 -0.044 0.018 -0.006 0.002 -0.052 0.034 -0.04 0.034 -0.004 0.004 -0.032 0.038 -0.004 0.006 -0.028 0.046 -0.004 0.01 -0.02 0.05v0.002c-0.046 0.148 -1.088 3.646 0.42 5.94 0.484 0.738 1.232 1.06 1.832 1.32 0.308 0.132 0.652 0.282 0.73 0.416v1.476c0 1.65 0.544 3.386 1.534 4.884 0.986 1.494 2.378 2.696 3.918 3.384 0.664 0.862 1.838 1.438 3.172 1.438s2.506 -0.574 3.17 -1.436c1.542 -0.688 2.932 -1.89 3.92 -3.384 0.99 -1.498 1.534 -3.232 1.534 -4.884v-1.476c0.078 -0.134 0.424 -0.284 0.73 -0.416 0.6 -0.26 1.348 -0.584 1.832 -1.32 1.508 -2.292 0.466 -5.792 0.42 -5.94m-11.608 18.106q-0.284 0 -0.554 -0.04a1.6 1.6 0 0 0 0.57 -0.284 1.6 1.6 0 0 0 0.558 0.28 4 4 0 0 1 -0.574 0.044m10.56 -12.578c-0.362 0.55 -0.968 0.812 -1.504 1.044 -0.532 0.23 -1.036 0.448 -1.17 0.938a0.4 0.4 0 0 0 -0.014 0.098v1.544c0 2.796 -1.714 5.662 -4.18 7.148a2.6 2.6 0 0 0 0.054 -0.444c0 -0.554 0.458 -0.754 0.506 -0.774a0.376 0.376 0 0 0 -0.264 -0.702c-0.038 0.014 -0.91 0.354 -0.988 1.336l-0.006 0.066a1.88 1.88 0 0 1 -0.242 0.914 0.4 0.4 0 0 0 -0.066 0.072c-0.006 0.008 -0.478 0.666 -1.344 0.666a2 2 0 0 1 -0.476 -0.064c-0.4 -0.104 -0.476 -0.214 -0.478 -0.406 1.278 -0.122 1.482 -0.846 1.482 -1.294a1.14 1.14 0 0 0 -0.55 -1.022 0.38 0.38 0 0 0 -0.516 0.12 0.374 0.374 0 0 0 0.12 0.516c0.138 0.086 0.198 0.202 0.198 0.386 0 0.154 0 0.562 -1.124 0.562s-1.124 -0.408 -1.124 -0.562c0 -0.184 0.06 -0.298 0.198 -0.386a0.376 0.376 0 0 0 -0.396 -0.636 1.14 1.14 0 0 0 -0.544 1.02c0 0.452 0.208 1.186 1.518 1.298 -0.004 0.19 -0.082 0.298 -0.486 0.402a1.76 1.76 0 0 1 -1.85 -0.604 0.4 0.4 0 0 0 -0.064 -0.07 1.88 1.88 0 0 1 -0.242 -0.914l-0.006 -0.066c-0.078 -0.982 -0.948 -1.32 -0.988 -1.336a0.376 0.376 0 0 0 -0.264 0.702 0.84 0.84 0 0 1 0.506 0.774l0.004 0.052a2.6 2.6 0 0 0 0.05 0.392c-2.466 -1.486 -4.178 -4.352 -4.178 -7.148v-1.544a0.4 0.4 0 0 0 -0.014 -0.098c-0.134 -0.488 -0.636 -0.706 -1.17 -0.938 -0.536 -0.232 -1.142 -0.494 -1.504 -1.044 -0.528 -0.804 -0.686 -1.814 -0.686 -2.738 0.312 0.586 0.826 1.21 1.668 1.758 0.85 0.556 1.26 0.896 1.332 1.6a0.374 0.374 0 0 0 0.746 -0.076c-0.116 -1.136 -0.906 -1.652 -1.668 -2.15C0.974 5.41 0.968 3.834 1.056 3.202c1.686 0.136 3.136 1.364 4.21 2.274 0.844 0.714 1.4 1.188 1.932 1.08a0.4 0.4 0 0 0 0.112 -0.042C8.568 5.8 10.146 5.438 12 5.438s3.432 0.362 4.69 1.076a0.4 0.4 0 0 0 0.112 0.042c0.532 0.106 1.09 -0.366 1.932 -1.08 1.074 -0.91 2.524 -2.138 4.208 -2.274 0.082 0.632 0.07 2.216 -1.774 3.422 -0.762 0.498 -1.552 1.014 -1.668 2.15a0.374 0.374 0 0 0 0.374 0.414 0.38 0.38 0 0 0 0.372 -0.336c0.072 -0.704 0.48 -1.042 1.332 -1.6 0.842 -0.55 1.356 -1.174 1.668 -1.762 0 0.924 -0.158 1.936 -0.688 2.742"/></svg>