<svg fill="#fff" width="24px" height="24px" viewBox="0 0 1.05 1.05" data-name="Layer 2" id="Layer_2" xmlns="http://www.w3.org/2000/svg"><path d="M1.005 0.672a0.037 0.037 0 0 1 -0.035 -0.023l-0.172 -0.417L0.6 0.65a0.037 0.037 0 1 1 -0.068 -0.032l0.235 -0.496a0.037 0.037 0 0 1 0.068 0.002l0.205 0.496A0.038 0.038 0 0 1 1.02 0.669a0.036 0.036 0 0 1 -0.015 0.003"/><path d="M0.906 0.48h-0.229a0.037 0.037 0 0 1 0 -0.075h0.229a0.037 0.037 0 0 1 0 0.075"/><path d="M0.102 0.949A0.037 0.037 0 0 1 0.07 0.93a0.037 0.037 0 0 1 0.011 -0.052c0.25 -0.158 0.274 -0.39 0.275 -0.4a0.037 0.037 0 0 1 0.075 0.007c0 0.011 -0.027 0.277 -0.31 0.456a0.038 0.038 0 0 1 -0.02 0.007"/><path d="M0.439 0.894a0.03 0.03 0 0 1 -0.009 0c-0.184 -0.047 -0.328 -0.257 -0.334 -0.266a0.037 0.037 0 1 1 0.062 -0.042c0 0.002 0.134 0.196 0.29 0.235a0.037 0.037 0 0 1 -0.009 0.074"/><path d="M0.501 0.488H0.045a0.037 0.037 0 0 1 0 -0.075h0.456a0.037 0.037 0 0 1 0 0.075"/><path d="M0.26 0.488a0.037 0.037 0 0 1 -0.036 -0.03l-0.025 -0.104a0.037 0.037 0 1 1 0.073 -0.017l0.025 0.104a0.038 0.038 0 0 1 -0.027 0.046 0.042 0.042 0 0 1 -0.01 0.001"/></svg>